# xmcd
#
# Track frame offsets:
#	180
#	10803
#	24023
#	39568
#	49535
#	60869
#	72132
#	87345
#	96357
#	107637
#	121249
#	135548
#	152668
#	163737
#
# Disc length: 2348 seconds
#
# Revision: 0
# Processed by: cddbd v1.5.1PL2 Copyright (c) Steve Scherf et al.
# Submitted via: dBpowerAMP V4.0
#
DISCID=a2092a0e
DTITLE=Rüdiger Helbig - Banjo Breakfast
DYEAR=1986
DGENRE=Bluegrass
TTITLE0=Rocky Island Hornpipe
TTITLE1=Back In Town
TTITLE2=Barrelhouse Rag
TTITLE3=Sweet Sue
TTITLE4=Black Mountain Rag - Sally
TTITLE5=Wildwood Mountain
TTITLE6=Spanish Grass
TTITLE7=John Hardy
TTITLE8=Banjo Breakfast
TTITLE9=Ultra Violet Waves
TTITLE10=Hadleigh Castle
TTITLE11=Cattail Rag
TTITLE12=Monday Night
TTITLE13=Auld Lang Style
EXTD=
EXTT0=
EXTT1=
EXTT2=
EXTT3=
EXTT4=
EXTT5=
EXTT6=
EXTT7=
EXTT8=
EXTT9=
EXTT10=
EXTT11=
EXTT12=
EXTT13=
PLAYORDER=
